<svg width="46" height="46" viewBox="0 0 46 46" fill="none" xmlns="http://www.w3.org/2000/svg">
<g id="UserCircle">
<path id="Vector" d="M23 40.25C32.5269 40.25 40.25 32.5269 40.25 23C40.25 13.4731 32.5269 5.75 23 5.75C13.4731 5.75 5.75 13.4731 5.75 23C5.75 32.5269 13.4731 40.25 23 40.25Z" stroke="white" stroke-width="3" stroke-linecap="round" stroke-linejoin="round"/>
<path id="Vector_2" d="M23 28.7501C26.9695 28.7501 30.1875 25.5321 30.1875 21.5626C30.1875 17.593 26.9695 14.3751 23 14.3751C19.0305 14.3751 15.8125 17.593 15.8125 21.5626C15.8125 25.5321 19.0305 28.7501 23 28.7501Z" stroke="white" stroke-width="3" stroke-linecap="round" stroke-linejoin="round"/>
<path id="Vector_3" d="M11.4641 35.8298C12.5457 33.6995 14.196 31.9102 16.2322 30.6604C18.2684 29.4106 20.6109 28.749 23 28.749C25.3892 28.749 27.7317 29.4106 29.7679 30.6604C31.8041 31.9102 33.4544 33.6995 34.536 35.8298" stroke="white" stroke-width="3" stroke-linecap="round" stroke-linejoin="round"/>
</g>
</svg>
